<svg xmlns="http://www.w3.org/2000/svg" xmlns:xlink="http://www.w3.org/1999/xlink" version="1.1" x="0px" y="0px" viewBox="0 0 100 125" enable-background="new 0 0 100 100" xml:space="preserve"><g><path d="M92.028,6c1.103,0,2,0.897,2,2v14c0,1.103-0.897,2-2,2h-84c-1.103,0-2-0.897-2-2V8c0-1.103,0.897-2,2-2H92.028 M92.028,5   h-84c-1.657,0-3,1.343-3,3v14c0,1.657,1.343,3,3,3h84c1.657,0,3-1.343,3-3V8C95.028,6.343,93.685,5,92.028,5L92.028,5z"/></g><g><path d="M92.028,40.938c1.103,0,2,0.897,2,2v14c0,1.103-0.897,2-2,2h-84c-1.103,0-2-0.897-2-2v-14c0-1.103,0.897-2,2-2H92.028    M92.028,39.938h-84c-1.657,0-3,1.343-3,3v14c0,1.657,1.343,3,3,3h84c1.657,0,3-1.343,3-3v-14   C95.028,41.281,93.685,39.938,92.028,39.938L92.028,39.938z"/></g><g><path d="M92.028,75.875c1.103,0,2,0.897,2,2v14c0,1.103-0.897,2-2,2h-84c-1.103,0-2-0.897-2-2v-14c0-1.103,0.897-2,2-2H92.028    M92.028,74.875h-84c-1.657,0-3,1.343-3,3v14c0,1.657,1.343,3,3,3h84c1.657,0,3-1.343,3-3v-14   C95.028,76.218,93.685,74.875,92.028,74.875L92.028,74.875z"/></g><text x="0" y="115" fill="#000000" font-size="5px" font-weight="bold" font-family="'Helvetica Neue', Helvetica, Arial-Unicode, Arial, Sans-serif">Created by Stan Diers</text><text x="0" y="120" fill="#000000" font-size="5px" font-weight="bold" font-family="'Helvetica Neue', Helvetica, Arial-Unicode, Arial, Sans-serif">from the Noun Project</text></svg>